<svg width="103" height="103" viewBox="0 0 103 103" fill="none" xmlns="http://www.w3.org/2000/svg">
<rect opacity="0.2" x="0.8" y="0.8" width="100.8" height="100.8" rx="50.4" stroke="#B38422" stroke-width="1.6"/>
<path d="M51.4539 69.0039C49.7187 69.0339 48.156 67.5387 48.2009 65.7765V54.3306L41.5617 58.9767C40.8838 59.4522 39.9479 59.2857 39.4725 58.6078C38.9986 57.9284 39.1621 56.9941 39.8415 56.5187L47.733 50.9982L39.8415 45.4792C39.1621 45.0053 38.9986 44.0695 39.4725 43.3901C39.9464 42.7122 40.8823 42.5472 41.5617 43.0211L48.2009 47.6658V36.2229C48.2009 34.9556 48.9148 33.8383 50.0636 33.3044C51.2124 32.772 52.5277 32.949 53.495 33.7663L61.946 39.6273C62.7933 40.3351 63.2087 41.244 63.1982 42.2053C63.1877 43.1681 62.7528 44.0665 62.0044 44.6723L52.9641 50.9982L61.922 57.2656C62.7543 57.9329 63.1892 58.8313 63.1997 59.7956C63.2102 60.7569 62.7948 61.6658 62.0614 62.2866L53.384 68.32C52.8651 68.764 52.1752 69.0054 51.4569 69.0054L51.4539 69.0039ZM51.2004 53.4233V65.7765C51.2004 65.814 51.2004 65.9145 51.3264 65.973C51.4509 66.033 51.5303 65.967 51.5573 65.9415L60.2333 59.9096C60.1778 59.9486 60.2003 59.8961 60.1988 59.8271C60.1973 59.7581 60.1703 59.7026 60.1178 59.6606L51.2004 53.4233ZM51.4164 36.0039C51.3879 36.0039 51.3594 36.0114 51.3264 36.0264C51.2004 36.0849 51.2004 36.1854 51.2004 36.2229V48.5731L60.2003 42.2758C60.1688 42.2938 60.1973 42.2398 60.1988 42.1708C60.2003 42.1018 60.1733 42.0463 60.1223 42.0028L51.6713 36.1419C51.5663 36.0594 51.4959 36.0039 51.4164 36.0039Z" fill="#B38422"/>
</svg>
