<svg width="393" height="504" viewBox="0 0 393 504" fill="none" xmlns="http://www.w3.org/2000/svg">
<path fill-rule="evenodd" clip-rule="evenodd" d="M618.488 421.642C612.402 420.312 605.324 418.791 597.602 417.214C594.17 416.507 590.497 415.773 586.69 415.012C588.315 420.911 589.887 427.132 591.542 434.077C593.55 442.496 595.721 452.149 597.949 462.552L618.462 421.669L618.488 421.642ZM574.587 390.191L535.358 399.053C544.393 400.606 553.722 402.241 562.542 403.902C568.306 404.963 574.017 406.079 579.567 407.193C579.079 405.37 578.565 403.627 578.078 401.911C576.941 397.942 575.804 394.08 574.614 390.218L574.587 390.191ZM565.988 363.371L489.758 391.229C494.771 392.128 500.267 393.082 506.459 394.145C509.274 394.609 512.196 395.126 515.279 395.645L572.288 382.762C571.936 381.609 571.557 380.482 571.179 379.302C569.529 374.18 567.772 368.789 565.988 363.371ZM551.4 322.815L459.998 385.194C462.974 385.98 466.165 386.659 469.489 387.365C471.178 387.718 472.975 388.072 474.905 388.453L563.555 355.969C563.257 355.137 562.987 354.279 562.717 353.474C560.176 346.018 557.663 338.91 555.395 332.848C553.991 329.092 552.668 325.793 551.454 322.815L551.4 322.815ZM516.512 276.706L435.447 364.597C435.717 365.134 436.013 365.644 436.309 366.154C438.68 370.448 441.022 374.233 443.496 377.348C444.141 378.154 444.733 378.799 445.296 379.149C446.934 380.252 448.732 381.195 450.664 382.058L548.19 315.544C546.572 312.109 544.983 309.023 543.232 305.937C541.293 302.502 539.246 299.119 537.013 295.978C534.914 293.024 532.629 290.151 530.129 287.598C527.361 284.776 524.272 282.168 520.674 279.585C519.331 278.617 517.935 277.648 516.485 276.679L516.512 276.706ZM481.192 256.668L427.358 347.264C427.871 348.579 428.411 349.866 428.95 351.154C429.814 353.193 430.731 355.232 431.674 357.191L509.801 272.453C509.157 272.076 508.486 271.672 507.815 271.268C502.581 268.118 496.703 264.751 490.343 261.383C487.364 259.794 484.305 258.231 481.111 256.64L481.192 256.668ZM445.162 241.584L419.097 316.828C419.261 317.954 419.451 319.053 419.669 320.179C420.596 325.541 421.817 330.769 423.44 336.079C423.602 336.616 423.792 337.179 423.954 337.715L474.135 253.244L473.196 252.786C466.676 249.792 459.942 246.959 452.968 244.367C450.393 243.394 447.791 242.449 445.162 241.53L445.162 241.584ZM417.088 298.896L437.813 239.097C435.614 238.394 433.415 237.691 431.162 236.988C424.994 235.094 418.611 233.307 412.203 231.708C412.366 232.673 412.476 233.637 412.586 234.602C413.189 239.213 413.659 244.011 414.049 249.156C414.439 254.195 414.749 259.582 415.061 265.504L415.345 270.757C415.827 279.788 416.338 289.65 417.115 298.87L417.088 298.896ZM395.526 191.467L336.398 212.649C340.231 212.955 343.849 213.207 347.413 213.458C357.812 214.185 367.915 214.885 378.611 216.443C386.063 217.537 393.677 219.006 401.212 220.77C401.909 220.933 402.552 221.095 403.249 221.258C402.812 218.417 402.268 215.575 401.617 212.625C400.557 207.773 399.203 202.678 397.418 197.045C396.85 195.248 396.201 193.371 395.553 191.44L395.526 191.467ZM384.194 164.639L300.21 207.506C303.267 208.265 306.511 208.945 309.889 209.544C312.677 210.034 315.519 210.471 318.44 210.828L392.905 184.144C392.041 181.891 391.124 179.637 390.179 177.357C388.372 173.091 386.403 168.772 384.247 164.585L384.194 164.639ZM362.454 134.029L288.167 203.318C288.704 203.587 289.294 203.857 289.857 204.1L380.449 157.849C377.514 152.776 374.365 148.078 370.815 143.566C368.125 140.128 365.33 136.958 362.427 134.056L362.454 134.029ZM330.634 110.705L277.687 192.998C278.416 194.795 279.197 196.218 280.03 197.265C280.461 197.802 280.971 198.366 281.509 198.904L356.731 128.734C353.024 125.561 348.781 122.28 344.136 119.078C339.787 116.064 335.223 113.21 330.634 110.705ZM294.77 97.2831L271.629 164.712C272.506 171.574 273.462 177.766 274.657 183.128L323.577 107.174C313.864 102.644 304.182 99.749 294.717 97.283L294.77 97.2831ZM275.383 92.3766L267.041 125.819C267.561 129.598 268 133.351 268.44 136.996C268.825 140.374 269.209 143.644 269.567 146.78L287.208 95.3318L286.404 95.1151L283.481 94.3831C281.255 93.8139 279.03 93.2447 276.804 92.6755L275.356 92.2961L275.383 92.3766ZM264.008 105.955L267.875 90.479C265.515 89.8826 263.075 89.3128 260.555 88.7159C261.83 94.2126 262.945 99.8159 263.926 105.446L264.035 105.982L264.008 105.955ZM248.584 63.2795L208.363 71.7899C215.789 73.1245 223.081 74.432 229.864 75.7647C239.033 77.56 246.621 79.2703 253.431 80.8978C252.319 76.2055 251.127 71.5932 249.827 67.1415C249.449 65.8543 249.043 64.5402 248.637 63.2797L248.584 63.2795ZM234.284 29.4762L172.788 65.5499C177.479 66.3942 182.653 67.2935 187.935 68.2468L246.017 55.9034C244.072 50.5388 241.94 45.4148 239.729 40.5852C237.949 36.7216 236.116 33.0185 234.257 29.503L234.284 29.4762ZM210.98 -4.62125L143.376 59.5422C148.551 60.7631 154.37 62.0395 161.153 63.3723L230.566 22.6595C229.839 21.398 229.112 20.1902 228.412 19.0091C224.75 12.8893 221.197 7.57338 217.432 2.79292C215.415 0.241503 213.291 -2.20295 211.007 -4.59437L210.98 -4.62125ZM169.252 -34.7534L123.558 53.8306L124.229 54.0737C127.287 55.1544 130.639 56.2092 134.447 57.2386L205.417 -10.0768C205.122 -10.3724 204.853 -10.6412 204.531 -10.9101C199.292 -15.6681 193.222 -20.3481 186.645 -24.6813C181.141 -28.3147 175.317 -31.7346 169.279 -34.7265L169.252 -34.7534ZM132.074 -48.6882L106.136 42.6062C107.132 44.19 108.181 45.6133 109.23 46.8757C109.445 47.0907 110.384 47.7097 111.914 48.652C113.31 49.4599 114.759 50.2144 116.262 50.9154L162.169 -38.043C156.052 -40.7404 149.882 -43.0092 143.955 -44.9826C139.905 -46.3074 135.882 -47.5516 132.074 -48.6345L132.074 -48.6882ZM106.197 -55.4357L92.813 4.0096C93.6855 9.15676 94.8002 14.6529 96.5049 20.3652C97.6957 24.3879 99.1815 28.5454 100.908 32.5161L124.592 -50.7732L123.493 -51.0712C117.352 -52.7236 112.043 -54.0789 106.519 -55.3276L106.198 -55.3822L106.197 -55.4357ZM89.5634 -16.873L98.5831 -57.0121C95.5267 -57.6105 92.2561 -58.2095 88.6907 -58.7826C86.841 -59.0827 84.8841 -59.3832 82.8467 -59.7107C83.1205 -57.7271 83.3673 -55.7704 83.6139 -53.9208C84.4072 -48.372 85.0359 -44.1098 85.609 -40.5444C86.2095 -36.7914 86.8367 -33.065 87.4637 -29.3923C88.0636 -25.8001 88.6636 -22.2079 89.2907 -18.4816L89.5634 -16.873ZM647.5 428.265C643.397 427.315 639.268 426.339 635.246 425.416C632.484 424.792 629.562 424.113 626.344 423.407L600.557 474.617C602.621 484.269 604.605 493.894 606.59 503.519L599.548 496.211C596.911 483.422 594.221 470.633 591.831 459.372C589.331 447.682 586.914 436.716 584.609 427.036C583.496 422.344 582.412 418.054 581.355 414.005C577.977 413.352 574.465 412.672 570.819 412.018C555.779 409.214 539.694 406.487 525.754 404.142C521.894 403.488 518.221 402.861 514.763 402.288C506.64 400.898 499.83 399.699 493.906 398.637C488.115 397.602 482.86 396.568 477.739 395.508C472.833 394.502 468.275 393.471 464.118 392.146C459.827 390.793 455.883 389.04 452.204 386.591C446.083 382.447 440.816 377.34 436.056 371.298C433.125 367.565 430.513 363.404 427.981 358.841C425.395 354.171 422.862 349.019 420.541 343.6C418.41 338.637 416.493 333.46 414.95 328.391C413.327 323.135 412.133 317.879 411.179 312.384C410.225 306.888 409.539 301.286 408.959 295.309C408.018 285.071 407.395 273.493 406.828 262.935L406.545 257.682C406.206 251.84 405.922 246.48 405.532 241.334C405.226 237.448 404.867 233.669 404.454 229.943C397.697 228.423 390.995 227.171 384.561 226.241C374.053 224.71 363.923 223.984 353.524 223.256C348.754 222.921 343.93 222.585 339.373 222.197C331.601 221.531 323.48 220.677 315.759 219.314C308.065 217.979 300.932 216.19 295.191 213.654C288.698 210.795 283.488 206.707 278.996 200.986C274.155 194.809 270.974 188.048 268.807 180.217C265.937 169.866 264.478 156.652 262.772 141.535C262.332 137.514 261.838 133.333 261.343 129.152C260.161 119.1 258.71 108.458 256.857 97.8957C256.231 94.3838 255.551 90.8717 254.844 87.3863C249.776 86.2193 244.28 85.0511 238.113 83.8541C227.952 81.8684 214.977 79.5797 202.297 77.3723C192.19 75.6011 182.271 73.8571 172.861 72.088C163.155 70.2375 155.434 68.5537 148.998 66.9808C142.509 65.3542 137.172 63.7577 132.344 62.0823C127.516 60.4069 123.251 58.5992 119.386 56.3371C113.507 52.8634 107.893 48.1044 102.193 41.2282C99.0737 37.4679 96.3544 33.0387 94.0902 28.4234C91.637 23.352 89.5846 17.8798 88.0151 12.6235C85.3629 3.61268 84.1055 -4.91168 82.9577 -12.5784L82.6569 -14.6425C82.0825 -18.6366 81.4282 -22.4969 80.8276 -26.3035C80.2273 -30.003 79.6004 -33.6221 79.0004 -37.2144C78.4008 -40.6994 77.8278 -44.2113 77.1458 -48.3664C76.5177 -52.4143 75.8625 -56.5426 75.2338 -60.8048C72.9285 -61.133 70.516 -61.4617 68.1035 -61.7902C59.07 -63.0224 50.0638 -64.1205 42.1029 -65.0816C34.437 -65.9615 27.8165 -66.7043 22.4291 -67.2827C16.4253 -67.8897 11.3061 -68.3602 7.47357 -68.6662C0.424997 -69.1958 -1.53061 -69.0676 -3.51299 -68.9126L-9.7847 -78.6575C-7.82909 -78.7858 -5.87356 -78.9676 1.38952 -78.3837C4.98083 -78.1052 10.1 -77.6347 16.4255 -76.9732C22.5098 -76.3391 29.1839 -75.5962 36.1261 -74.7988C44.623 -73.7826 53.7364 -72.6841 62.1534 -71.5341C66.1741 -70.9865 70.1683 -70.4122 74.0016 -69.8383C73.5908 -72.8673 73.2064 -76.0302 72.8218 -79.3003C72.1082 -85.09 71.4207 -91.1208 70.8412 -96.8834C69.628 -108.569 68.767 -118.995 67.9595 -129.421L76.5032 -121.518C77.3373 -111.173 78.1445 -100.855 79.4117 -89.0075C80.0177 -83.3788 80.7051 -77.348 81.4191 -71.451C81.5289 -70.5397 81.6657 -69.6014 81.7488 -68.6634L82.8479 -68.4727C89.6034 -67.3811 95.2604 -66.2659 100.784 -65.0172C106.227 -63.7956 111.616 -62.4134 117.891 -60.7337C124.059 -59.0544 131.058 -57.0779 138.488 -54.6179C145.917 -52.1578 153.616 -49.2147 161.048 -45.7365C168.454 -42.2315 175.647 -38.1376 182.412 -33.67C189.473 -29.0138 196.079 -23.8499 201.963 -18.5541C208.034 -13.0702 213.356 -7.37414 218.359 -1.03594C223.388 5.32909 227.963 12.1484 232.567 19.8519C237.01 27.2871 241.483 35.6065 245.635 44.6753C249.734 53.5831 253.487 63.2671 256.572 73.6189C257.411 76.4348 258.223 79.3309 258.955 82.2537C262.28 83.0673 265.444 83.8803 268.555 84.6933C270.78 85.2625 273.006 85.8317 275.232 86.4009L278.154 87.1329C290.596 90.2239 303.574 93.4772 316.749 99.7589C323.699 103.075 330.731 107.275 337.443 111.904C345.256 117.312 352.992 123.605 360.085 130.164C367.366 136.91 373.36 143.386 378.389 149.804C382.8 155.444 386.649 161.27 390.07 167.469C393.195 173.105 396.052 179.116 398.589 185.072C401.476 191.913 403.961 198.726 405.908 204.841C407.747 210.58 409.101 215.675 410.134 220.501C410.324 221.386 410.514 222.271 410.704 223.156C415.718 224.483 420.706 225.891 425.561 227.379C433.124 229.705 440.473 232.192 447.608 234.892C454.716 237.566 461.531 240.426 468.077 243.446C474.114 246.224 479.991 249.161 485.573 252.125C492.04 255.547 497.999 258.994 503.34 262.198C508.333 265.214 512.763 268.04 516.844 271C521.113 274.094 524.981 277.374 528.663 281.109C532.587 285.14 536.164 289.571 539.446 294.243C542.594 298.727 545.421 303.317 547.953 307.826C550.404 312.201 552.641 316.522 554.906 321.512C557.118 326.342 559.331 331.761 561.815 338.467C564.111 344.556 566.678 351.878 569.299 359.576C572.245 368.186 575.219 377.251 577.896 385.646C580.384 393.477 582.656 400.718 584.822 408.334C586.35 408.633 587.852 408.959 589.38 409.259C597.718 410.971 605.091 412.573 611.258 413.931C617.639 415.343 622.653 416.456 627.024 417.461C631.93 418.574 635.63 419.442 639.277 420.31L647.5 428.372L647.5 428.265Z" fill="#B38422"/>
</svg>
