<svg width="17" height="17" viewBox="0 0 17 17" fill="none" xmlns="http://www.w3.org/2000/svg">
<g clip-path="url(#clip0_6033_3450)">
<path d="M6.85974 12.5847C7.05322 12.7783 7.28294 12.9319 7.53579 13.0367C7.78864 13.1415 8.05965 13.1954 8.33335 13.1954C8.60705 13.1954 8.87807 13.1415 9.13092 13.0367C9.38377 12.9319 9.61349 12.7783 9.80696 12.5847L12.0368 10.3549C12.1564 10.2226 12.2205 10.0495 12.2159 9.87129C12.2114 9.69309 12.1384 9.52347 12.0122 9.39755C11.8861 9.27163 11.7163 9.19906 11.5381 9.19486C11.3599 9.19067 11.1869 9.25516 11.0549 9.375L9.02294 11.4076L9.0278 0.694444C9.0278 0.510266 8.95463 0.333632 8.8244 0.203398C8.69417 0.0731645 8.51753 0 8.33335 0V0C8.14918 0 7.97254 0.0731645 7.84231 0.203398C7.71207 0.333632 7.63891 0.510266 7.63891 0.694444L7.63266 11.3944L5.61183 9.375C5.48152 9.24479 5.30482 9.17167 5.12061 9.17173C4.93639 9.1718 4.75975 9.24504 4.62954 9.37535C4.49932 9.50565 4.4262 9.68235 4.42627 9.86656C4.42633 10.0508 4.49958 10.2274 4.62988 10.3576L6.85974 12.5847Z" fill="#B38422"/>
<path d="M15.9722 11.1108C15.788 11.1108 15.6114 11.184 15.4812 11.3142C15.3509 11.4445 15.2778 11.6211 15.2778 11.8053V14.5831C15.2778 14.7672 15.2046 14.9439 15.0744 15.0741C14.9441 15.2043 14.7675 15.2775 14.5833 15.2775H2.08333C1.89916 15.2775 1.72252 15.2043 1.59229 15.0741C1.46205 14.9439 1.38889 14.7672 1.38889 14.5831V11.8053C1.38889 11.6211 1.31572 11.4445 1.18549 11.3142C1.05526 11.184 0.878622 11.1108 0.694444 11.1108C0.510266 11.1108 0.333632 11.184 0.203398 11.3142C0.0731645 11.4445 0 11.6211 0 11.8053L0 14.5831C0 15.1356 0.219493 15.6655 0.610194 16.0562C1.00089 16.4469 1.5308 16.6664 2.08333 16.6664H14.5833C15.1359 16.6664 15.6658 16.4469 16.0565 16.0562C16.4472 15.6655 16.6667 15.1356 16.6667 14.5831V11.8053C16.6667 11.6211 16.5935 11.4445 16.4633 11.3142C16.333 11.184 16.1564 11.1108 15.9722 11.1108Z" fill="#B38422"/>
</g>
<defs>
<clipPath id="clip0_6033_3450">
<rect width="16.6667" height="16.6667" fill="white"/>
</clipPath>
</defs>
</svg>
