<svg width="30" height="30" viewBox="0 0 30 30" fill="none" xmlns="http://www.w3.org/2000/svg">
<rect width="30" height="30" rx="15" fill="#687186" fill-opacity="0.15"/>
<path d="M19.9967 14.3406C19.8483 15.6687 19.2074 16.8938 18.1971 17.7969C17.3036 18.5938 16.186 19.075 15.0052 19.1844V22H15.9965C16.2744 22 16.5017 22.225 16.5017 22.5C16.5017 22.775 16.2744 23 15.9965 23H13.0003C12.7225 23 12.4952 22.775 12.4952 22.5C12.4952 22.225 12.7225 22 13.0003 22H13.9948V19.1844C12.814 19.0781 11.6964 18.5938 10.8029 17.7969C9.7926 16.8938 9.15168 15.6687 9.00329 14.3406C8.97172 14.0656 9.17063 13.8187 9.44846 13.7875C9.7263 13.7562 9.97572 13.9531 10.0073 14.2281C10.263 16.4969 12.1952 18.2063 14.5 18.2063C16.8048 18.2063 18.737 16.4969 18.9927 14.2281C19.0243 13.9531 19.2737 13.7562 19.5515 13.7875C19.8294 13.8187 20.0283 14.0656 19.9967 14.3406ZM11.0997 13.7312V10.3656C11.0997 8.50937 12.6246 7 14.5 7C16.3754 7 17.9003 8.50937 17.9003 10.3656V13.7312C17.9003 15.5875 16.3754 17.0969 14.5 17.0969C12.6246 17.0969 11.0997 15.5875 11.0997 13.7312ZM12.11 13.7312C12.11 15.0344 13.1803 16.0969 14.5 16.0969C15.8197 16.0969 16.89 15.0375 16.89 13.7312V10.3656C16.89 9.0625 15.8197 8 14.5 8C13.1803 8 12.11 9.05937 12.11 10.3656V13.7312Z" fill="#444444"/>
</svg>
