<svg width="38" height="120" viewBox="0 0 38 120" fill="none" xmlns="http://www.w3.org/2000/svg">
<path d="M2.61075 2.61035V8.05957C3.85304 8.17053 4.84472 9.15082 4.97208 10.3887L4.98672 10.6553L5.08047 75.5254C5.0861 78.7241 5.55673 81.8881 6.46524 84.8555V84.8564L13.3227 107.271L13.3432 107.339L14.9369 113.107C15.7208 115.943 17.4749 116.831 18.7357 116.831C19.9572 116.831 21.6416 115.999 22.4584 113.368L22.5346 113.107L24.1293 107.339L24.1488 107.271L31.0072 84.8564V84.8555L31.1723 84.2969C31.9729 81.4919 32.388 78.5238 32.392 75.5264L32.4857 10.6553C32.4877 9.29402 33.5313 8.1782 34.8617 8.05957V2.61035H2.61075Z" stroke="#687186" stroke-opacity="0.7" stroke-width="5.22155" stroke-linecap="round" stroke-linejoin="round"/>
</svg>
