<svg width="176" height="161" viewBox="0 0 176 161" fill="none" xmlns="http://www.w3.org/2000/svg">
<g clip-path="url(#clip0_2007_898)">
<path fill-rule="evenodd" clip-rule="evenodd" d="M161.04 93.6727H163.382C167.084 93.6727 170.113 91.124 170.113 88.0049V81.8122C170.113 78.6982 167.084 76.1444 163.382 76.1444H155.168H152.827C149.125 76.1444 146.095 78.6931 146.095 81.8072V87.9999C146.095 91.1139 149.125 93.6626 152.827 93.6626H161.04V93.6727ZM11.0506 70.9258H22.8598C25.864 70.9258 28.5899 72.1674 30.5522 74.1609C32.5145 72.1674 35.2405 70.9258 38.2447 70.9258H50.0539C55.9913 70.9258 60.8516 75.776 60.8516 81.7012V98.8611H54.641V83.3616C54.641 79.6369 51.5863 76.5936 47.8589 76.5936H40.4396C36.7072 76.5936 33.6575 79.642 33.6575 83.3616V98.8611H27.447V83.3616C27.447 79.6369 24.3922 76.5936 20.6649 76.5936H13.2456C9.51316 76.5936 6.4635 79.642 6.4635 83.3616V98.8611H0.25293V81.7012C0.25293 75.776 5.11316 70.9258 11.0506 70.9258ZM175.747 79.9801V89.842C175.747 94.8032 170.922 98.8611 165.03 98.8611H155.168V98.851H151.178C145.281 98.851 140.461 94.7931 140.461 89.837V79.9801C140.461 75.024 145.286 70.9662 151.178 70.9662H165.03C170.927 70.9662 175.747 75.024 175.747 79.9852V79.9801ZM113.54 70.9611H126.361C132.809 70.9611 138.084 77.2043 138.084 84.8354V98.8257H131.343V86.9703C131.343 82.1756 128.03 78.2541 123.979 78.2541H115.927C111.876 78.2541 108.564 82.1756 108.564 86.9703V98.8257H101.822V84.8354C101.822 77.2043 107.097 70.9611 113.545 70.9611H113.54ZM87.7472 98.8257H74.9265C68.4782 98.8257 63.2033 92.5826 63.2033 84.9515V70.9258H69.9449V82.8166C69.9449 87.6112 73.2575 91.5328 77.3086 91.5328H85.3601C89.4111 91.5328 92.7237 87.6112 92.7237 82.8166V70.9258H99.4653V84.9515C99.4653 92.5826 94.1904 98.8257 87.7421 98.8257H87.7472Z" fill="#B38422"/>
<path fill-rule="evenodd" clip-rule="evenodd" d="M32.0543 0H47.0952C54.6612 0 60.8516 6.17756 60.8516 13.7279V57.7682H52.9417V15.8376C52.9417 11.0934 49.0525 7.21724 44.3035 7.21724H34.8562C30.1021 7.21724 26.218 11.0984 26.218 15.8376V57.7682H18.3081V13.7279C18.298 6.17756 24.4883 0 32.0543 0Z" fill="#B38422"/>
<path d="M8.61793 0H0V57.7682H8.61793V0Z" fill="#B38422"/>
<path d="M156.756 0.368408H84.9857C84.1411 0.368408 83.3167 0.449161 82.5176 0.610665C81.6326 0.787311 80.7779 1.0548 79.9687 1.40305C75.4726 3.34615 72.3218 7.81277 72.3218 13.0062V44.762C72.3218 51.7269 78.0013 57.3998 84.9857 57.3998H156.756C163.741 57.3998 169.425 51.7269 169.425 44.762V13.0062C169.425 6.03621 163.741 0.368408 156.756 0.368408ZM92.7792 7.10114C93.5834 9.17546 94.3723 11.4113 95.1006 13.4604L95.5204 14.6515C96.0009 15.999 96.4409 17.2204 96.8707 18.356C97.3158 19.5168 97.7507 20.5969 98.2009 21.6113C98.2969 21.8283 98.393 22.0403 98.4891 22.2523C96.9011 22.328 95.313 22.3583 93.7553 22.3532C93.1889 22.3482 92.6326 22.3431 92.0813 22.328L92.7792 7.10114ZM87.3323 3.39662H91.0749L90.2101 22.2674C89.5374 22.2372 88.8698 22.1968 88.2174 22.1514C86.4271 22.0302 84.6822 21.8485 82.9779 21.6113L82.7301 21.576L87.3323 3.39662ZM75.3563 15.2067L75.3664 14.919C75.4878 10.8157 77.4248 6.97496 80.6464 4.43126C81.9512 3.7701 83.4229 3.39662 84.9857 3.39662H85.4004L80.8689 21.2883C80.0344 21.147 79.2151 20.9956 78.4211 20.8391C77.354 20.6272 76.3273 20.4 75.3563 20.1729V15.2067ZM84.9857 54.3715C79.6753 54.3715 75.3563 50.0614 75.3563 44.762V21.3943C75.3563 21.3943 75.3815 21.3993 75.3967 21.4044C76.8432 21.7728 78.4565 22.1514 80.176 22.4946C81.6629 22.7873 83.2206 23.0598 84.8087 23.2819C86.5181 23.5191 88.2882 23.7008 90.114 23.827C91.9397 23.9531 93.8059 24.0238 95.7075 24.0339C96.9264 24.0389 98.1705 24.0188 99.4197 23.9733C99.5209 24.1651 99.622 24.3569 99.7282 24.5487C100.3 25.5833 100.962 26.6634 101.776 27.8646C102.646 29.1415 103.678 30.5395 104.811 31.9173C105.802 33.1185 106.874 34.3096 107.982 35.3897C109.196 36.5808 110.47 37.6558 111.876 38.6551C113.474 39.7856 115.3 40.8556 117.439 41.9054C119.518 42.9299 121.728 43.8435 123.903 44.55C125.769 45.1557 127.676 45.6352 129.507 45.9178C132.976 46.4528 136.193 46.3014 139.273 46.1499L139.991 46.1197C140.542 46.0944 141.093 46.0692 141.65 46.044C142.423 46.0137 143.207 45.9783 144.027 45.938C144.401 46.5588 144.78 47.1694 145.17 47.765C146.586 49.9352 148.113 51.9035 149.661 53.6801C149.868 53.9123 150.07 54.1444 150.278 54.3715H84.9857ZM125.557 44.5046C124.323 44.2422 123.084 43.9091 121.87 43.5154C120.585 43.0965 119.382 42.6372 118.309 42.1577L130.882 20.7584C131.044 20.8442 131.196 20.935 131.332 21.0309C131.6 21.2177 131.873 21.4902 132.167 21.8485L125.557 44.5046ZM133.522 23.9229C134.17 25.0786 134.817 26.4413 135.479 27.9605L134.741 45.1153C132.389 45.2011 129.957 45.2011 127.413 44.8327L133.522 23.9229ZM116.625 41.3351C115.75 40.8657 114.896 40.3307 114.036 39.7251C112.918 38.9327 111.866 38.0646 110.845 37.1006L128.591 20.1426C128.748 20.1628 128.895 20.183 129.041 20.2083L116.625 41.3351ZM109.525 35.7834C108.746 34.9657 107.992 34.1128 107.284 33.2498C106.905 32.7955 106.541 32.3312 106.187 31.877L121.546 20.5615C122.244 20.4455 122.932 20.3445 123.605 20.2638C124.419 20.1679 125.213 20.0972 125.971 20.0619L109.525 35.7834ZM105.074 30.378C104.791 29.9843 104.518 29.5957 104.265 29.2172C103.466 28.0463 102.808 26.9713 102.232 25.9215C101.883 25.2906 101.564 24.6698 101.266 24.044C101.433 24.0339 101.599 24.0238 101.766 24.0137C103.622 23.8926 105.479 23.7058 107.274 23.4383C109.843 23.0598 112.225 22.5198 114.673 21.9697C115.513 21.7779 116.362 21.5861 117.273 21.3893L105.074 30.378ZM136.617 45.0295L137.179 31.9476C137.477 32.6492 137.781 33.3759 138.104 34.1229C138.453 34.9355 138.817 35.7682 139.197 36.606L139.551 44.8983L139.197 44.9134C138.64 44.9387 138.094 44.9588 137.538 44.9891L136.82 45.0194L136.617 45.0295ZM141.255 40.9767L141.311 41.0979C141.923 42.3193 142.56 43.5356 143.228 44.7166C142.605 44.7519 142.004 44.7872 141.422 44.8125L141.255 40.9767ZM145.402 46.0187C147.086 45.9228 148.953 45.7866 151.188 45.5695C152.842 45.408 154.617 45.2062 156.417 44.9942L147.719 49.7535C147.536 49.486 147.354 49.2135 147.177 48.9409C146.565 48.0072 145.974 47.0281 145.402 46.0187ZM155.355 54.3715H151.294C150.46 53.4126 149.62 52.383 148.806 51.2828L161.369 44.4037C162.653 44.2523 163.902 44.1009 165.045 43.9747L155.355 54.3715ZM157.818 54.311L166.386 45.1204C166.209 49.8999 162.517 53.7962 157.818 54.311ZM166.391 42.1325C165.824 42.188 165.222 42.2486 164.59 42.3142C162.299 42.5514 159.892 42.8391 157.439 43.1369C154.359 43.5053 151.218 43.8838 148.735 44.1261C147.228 44.2775 145.883 44.3835 144.634 44.4693C144.229 43.7173 143.834 42.9552 143.45 42.183C142.302 39.8815 141.245 37.5246 140.284 35.2887C139.885 34.3601 139.49 33.4314 139.116 32.5331C137.695 29.1667 136.456 26.2243 135.09 24.0339C134.053 22.3785 132.865 21.041 131.322 19.9509C129.901 18.9515 128.414 18.3661 126.725 18.1592C125.223 17.9775 123.453 18.0532 121.592 18.2803C119.72 18.5024 117.783 18.8657 115.948 19.2544C114.87 19.4815 113.737 19.7338 112.615 19.9862C110.162 20.5414 107.78 21.0814 105.246 21.4549C103.698 21.687 102.07 21.8586 100.406 21.9798C100.047 21.147 99.713 20.3041 99.3792 19.426C98.9342 18.2652 98.4993 17.0488 98.0289 15.7265L97.6041 14.5354C96.7595 12.1431 95.8289 9.51361 94.9084 7.21722C94.3724 5.87471 93.8312 4.62809 93.2344 3.43195C93.2294 3.42186 93.2243 3.40672 93.2142 3.39662H156.756C162.067 3.39662 166.391 7.70678 166.391 13.0062V42.1325Z" fill="#B38422"/>
<path d="M169.056 112.044H6.94391C3.11034 112.044 0 115.148 0 118.974V154.065C0 157.896 3.11034 160.995 6.94391 160.995H169.051C172.89 160.995 175.995 157.891 175.995 154.065V118.974C175.995 115.148 172.885 112.044 169.051 112.044H169.056ZM45.492 147.706H25.52C20.2653 147.706 15.9917 143.674 15.9917 138.717V125.181H20.9076V138.717C20.9076 140.968 22.9761 142.8 25.52 142.8H45.492V147.706ZM76.9342 147.757H71.4722V140.721H53.0175V147.757H47.5554V136.421C47.5554 130.238 51.829 125.181 57.0533 125.181H67.4363C72.6607 125.181 76.9342 130.238 76.9342 136.421V147.757ZM128.349 147.812H123.316V135.255C123.316 132.237 120.843 129.769 117.819 129.769H111.811C108.786 129.769 106.313 132.237 106.313 135.255V147.812H101.281V135.255C101.281 132.237 98.8078 129.769 95.7834 129.769H89.7752C86.7508 129.769 84.2777 132.237 84.2777 135.255V147.812H79.2455V133.913C79.2455 129.113 83.1802 125.181 87.9949 125.181H97.5586C99.9913 125.181 102.201 126.186 103.789 127.801C105.377 126.186 107.588 125.181 110.02 125.181H119.584C124.394 125.181 128.333 129.108 128.333 133.913V147.812H128.349ZM160.008 133.211C160.008 137.123 156.367 140.307 151.896 140.307H135.631V147.863H130.473V129.391C130.473 127.064 132.359 125.181 134.691 125.181H151.896C156.372 125.181 160.008 128.366 160.008 132.277V133.216V133.211Z" fill="#B38422"/>
<path d="M151.896 130.496H138.585C136.941 130.496 135.798 131.435 135.798 132.277V133.216C135.798 134.059 136.941 134.998 138.585 134.998H151.896C153.54 134.998 154.683 134.059 154.683 133.216V132.277C154.683 131.435 153.54 130.496 151.896 130.496Z" fill="#B38422"/>
<path d="M65.5094 131.091H58.9853C56.8106 131.091 54.8988 132.489 53.857 134.569C53.6243 135.028 53.9531 135.573 54.474 135.573H70.0257C70.5416 135.573 70.8703 135.028 70.6377 134.569C69.5958 132.495 67.6841 131.091 65.5094 131.091Z" fill="#B38422"/>
</g>
<defs>
<clipPath id="clip0_2007_898">
<rect width="176" height="161" fill="white"/>
</clipPath>
</defs>
</svg>
