<svg width="175" height="162" viewBox="0 0 175 162" fill="none" xmlns="http://www.w3.org/2000/svg">
<path d="M166.166 101.863H81.4044C76.5669 101.863 72.6355 98.3554 72.6355 94.0394V58.2074C72.6355 53.8914 76.5669 50.3838 81.4044 50.3838H166.166C171.004 50.3838 174.935 53.8914 174.935 58.2074V94.0394C174.935 98.3554 171.004 101.863 166.166 101.863ZM81.4044 52.946C77.9881 52.946 75.2042 55.3061 75.2042 58.2009V94.0328C75.2042 96.9276 77.9881 99.2877 81.4044 99.2877H166.166C169.583 99.2877 172.367 96.9276 172.367 94.0328V58.2009C172.367 55.3061 169.583 52.946 166.166 52.946H81.4044Z" fill="#B38422"/>
<path fill-rule="evenodd" clip-rule="evenodd" d="M156.159 100.853C154.49 99.1704 152.436 96.9212 150.871 94.8283C150.467 94.2677 150.037 93.6809 149.62 93.1006C148.766 93.1528 147.964 93.218 147.155 93.2767C146.568 93.3158 145.995 93.3614 145.408 93.4005L144.671 93.4657C141.47 93.7004 138.119 93.9482 134.481 93.5375C132.564 93.3288 130.55 93.4527 128.587 92.9116C127.896 92.729 127.049 92.6703 126.357 92.5269C124.754 92.1814 123.306 91.7706 121.768 91.1252C119.505 90.1733 117.497 88.5565 115.796 87.5068C114.309 86.581 112.673 85.0815 111.369 83.9797C110.189 82.9561 109.328 81.8216 108.265 80.6872C107.027 79.3703 105.899 78.0533 104.947 76.8276C104.067 75.6801 103.337 74.6435 102.704 73.6721C102.587 73.483 102.469 73.3005 102.359 73.1179C101.048 73.2092 99.7703 73.2548 98.486 73.2874C96.5105 73.3461 94.5481 73.3396 92.6444 73.2744C90.7472 73.2092 88.8825 73.0918 87.1027 72.9028C85.4206 72.7332 83.7972 72.5246 82.239 72.2899C80.4266 72.0161 78.738 71.7032 77.2124 71.3772C76.5474 71.2403 75.9084 71.1033 75.2956 70.9599L75.2434 64.3099L82.0695 51.3423H84.2014L75.2239 68.7693L75.3999 69.6886C76.9059 69.995 78.5685 70.3079 80.3353 70.5753C81.1698 70.6991 82.0304 70.823 82.9236 70.9338L87.7742 51.3423H89.7757L84.8664 71.1685L85.1272 71.1946C86.9136 71.3641 88.7456 71.488 90.6168 71.5467C91.3013 71.5858 91.9859 71.5988 92.6835 71.5988L92.9443 54.074C92.8204 53.8393 92.69 53.6046 92.5531 53.3895C92.1554 52.6919 91.7316 52.0138 91.2818 51.3423H93.1529C93.9027 52.3528 94.5742 53.396 95.2066 54.4978C95.8651 55.6322 96.4845 55.9256 97.0712 57.2165C98.1274 59.4267 99.1836 61.6694 100.135 63.9839L100.637 65.1183C101.166 66.4027 101.655 67.5827 102.176 68.6846C102.541 69.5321 102.919 70.3536 103.317 71.1555C105.045 70.9729 106.753 70.7513 108.344 70.484C110.991 70.0276 113.449 69.4343 115.978 68.8149C117.139 68.5411 118.325 68.2477 119.434 67.9804C121.337 67.5567 123.339 67.1329 125.282 66.8656C127.218 66.5787 129.057 66.4353 130.628 66.5852C132.388 66.7221 133.972 67.2502 135.485 68.1825C137.128 69.1996 138.412 70.4709 139.553 72.0422C141.046 74.148 142.448 76.971 144.039 80.2113C144.469 81.0849 144.912 81.9781 145.356 82.8583C146.438 85.0163 147.625 87.2786 148.896 89.5018C149.333 90.232 149.756 90.9492 150.213 91.6794C151.523 91.562 153.29 91.8097 154.868 91.6142C157.443 91.2947 160.71 90.8188 163.911 90.3689C166.453 89.9908 168.963 89.6452 171.343 89.3258C172.132 89.228 172.875 89.1367 173.573 89.0584L173.658 91.6533L163.963 102.091L157.339 102.052C156.948 101.681 156.556 101.296 156.165 100.905L156.159 100.853ZM158.441 101.922L161.322 102.046L171.871 90.734C170.678 90.9035 169.381 91.0796 168.057 91.2751L155.194 98.4011C156.074 99.4312 156.993 100.416 157.893 101.328C158.076 101.511 158.258 101.746 158.441 101.922ZM153.988 96.9212L162.9 92.0119C161.022 92.2857 159.19 92.5204 157.469 92.7421C155.148 93.042 152.814 92.8268 151.067 92.9833C151.68 93.9482 152.729 95.2586 153.414 96.1584C153.59 96.4126 153.792 96.6734 153.988 96.9277V96.9212ZM139.905 92.4226L140.088 75.6736C139.351 74.2067 138.627 72.9028 137.917 71.8009L132.264 92.3965C134.931 92.6704 137.46 92.5986 139.905 92.4226ZM141.861 92.2987L142.07 92.2792L142.82 92.2205C143.393 92.1748 143.974 92.1292 144.547 92.0966L144.919 92.0705L144.247 83.9992C143.843 83.1908 143.439 82.3889 143.041 81.6C142.67 80.8959 142.331 80.1983 141.992 79.5137L141.855 92.3052L141.861 92.2987ZM130.315 92.1423L136.424 69.8059C136.111 69.4865 135.818 69.2257 135.524 69.0562C135.374 68.9649 135.211 68.8801 135.042 68.8084L122.667 90.0755C123.808 90.5123 125.067 90.9165 126.436 91.2817C127.701 91.6337 129.011 91.9271 130.315 92.1488V92.1423ZM148.752 91.7837C148.016 90.6427 147.305 89.4692 146.627 88.3087L146.562 88.1979L146.862 91.9206C147.475 91.888 148.101 91.8358 148.752 91.7772V91.7837ZM120.888 89.3258L133.118 68.3064C132.962 68.2934 132.805 68.2738 132.642 68.2608L114.713 85.3879C115.809 86.2811 116.943 87.1026 118.123 87.8328C119.049 88.4 119.949 88.8955 120.881 89.3258H120.888ZM113.286 84.1361L129.911 68.2803C129.115 68.3325 128.281 68.4303 127.459 68.5411C126.755 68.6454 126.038 68.7628 125.301 68.8997L109.68 80.4264C110.065 80.8633 110.463 81.3066 110.867 81.7434C111.636 82.5519 112.458 83.3733 113.279 84.1361H113.286ZM108.468 79.0182L120.868 69.8516C119.936 70.0863 119.062 70.2949 118.188 70.497C115.652 71.1294 113.201 71.7227 110.515 72.1661C108.657 72.4986 106.733 72.7463 104.797 72.9093C104.614 72.9288 104.445 72.9419 104.275 72.9549C104.601 73.5547 104.96 74.1545 105.351 74.7609C105.977 75.7649 106.714 76.7885 107.574 77.9033C107.861 78.2684 108.161 78.6466 108.468 79.0182ZM96.3932 71.5336C98.0166 71.5076 99.6726 71.4163 101.329 71.2859C101.218 71.0838 101.113 70.8752 101.003 70.673C100.488 69.7016 99.9985 68.6585 99.5096 67.5371C99.001 66.4614 98.5055 65.2683 97.9709 63.9643L97.4754 62.8299C96.6605 60.8414 95.7542 58.9833 94.8415 56.9753L94.6459 71.5728C95.2131 71.5597 95.7934 71.5532 96.3867 71.5336H96.3932Z" fill="#B38422"/>
<path fill-rule="evenodd" clip-rule="evenodd" d="M68.2608 119.583C68.2477 119.623 68.2216 119.649 68.1956 119.668C68.2347 119.642 68.2608 119.603 68.2608 119.583Z" fill="#B38422"/>
<path fill-rule="evenodd" clip-rule="evenodd" d="M104.295 119.674C103.923 119.492 103.545 119.342 103.154 119.198C102.078 118.807 100.983 118.52 99.8614 118.344C98.7465 118.162 97.5925 118.051 96.4255 117.992C95.428 117.953 92.6832 117.934 92.6832 117.934C91.6075 117.934 89.9385 117.953 88.941 117.992C87.7674 118.044 86.6199 118.162 85.5051 118.344C84.3837 118.527 83.2884 118.807 82.2127 119.198C81.8215 119.335 81.4434 119.492 81.0717 119.674C78.4769 120.933 76.7688 123.234 76.7427 126.168V145.518C76.7427 145.779 76.9513 145.988 77.2121 145.988H82.2713C82.5321 145.988 82.7408 145.779 82.7408 145.518V141.424C82.7408 140.687 82.7799 128.469 82.7799 128.111C82.7929 127.459 82.9494 126.742 83.2623 126.187C83.5687 125.633 83.9795 125.151 84.475 124.74C84.977 124.329 85.5116 124.01 86.0788 123.782C86.7503 123.527 87.4284 123.325 88.126 123.175C88.8171 123.025 89.606 122.921 90.4926 122.869C90.8773 122.843 91.6205 122.83 92.4224 122.823C93.2178 122.823 94.5218 122.849 94.9064 122.869C95.7931 122.928 96.5755 123.025 97.2731 123.175C97.9641 123.319 98.6487 123.527 99.3202 123.782C99.8874 124.01 100.422 124.329 100.924 124.74C101.42 125.157 101.824 125.64 102.137 126.187C102.443 126.742 102.606 127.452 102.619 128.111C102.619 128.476 102.652 140.694 102.658 141.424V145.518C102.658 145.779 102.867 145.988 103.128 145.988H108.187C108.448 145.988 108.656 145.779 108.656 145.518V126.168C108.63 123.234 106.922 120.926 104.327 119.674H104.295Z" fill="#B38422"/>
<path fill-rule="evenodd" clip-rule="evenodd" d="M44.2097 144.254C44.5814 144.436 44.9595 144.586 45.3442 144.723C46.4134 145.114 47.5022 145.394 48.6236 145.577C49.7384 145.76 50.8794 145.87 52.0464 145.923C53.0374 145.962 55.7756 145.981 55.7756 145.981C56.8448 145.981 58.5138 145.962 59.5048 145.923C60.6718 145.87 61.8128 145.753 62.9276 145.577C64.0425 145.394 65.1378 145.114 66.207 144.723C66.5917 144.586 66.9698 144.43 67.3415 144.254C69.9232 143.002 71.6249 139.579 71.6509 136.658V119.694C71.6509 119.433 71.4423 119.225 71.1815 119.225H66.1483C65.8876 119.225 65.6789 119.433 65.6789 119.694V122.595C65.6789 123.325 65.6398 135.491 65.6398 135.85C65.6268 136.502 65.4703 137.212 65.1574 137.76C64.8509 138.308 64.4467 138.79 63.9512 139.201C63.4557 139.612 62.9211 139.924 62.3539 140.153C61.6824 140.407 61.0043 140.609 60.3198 140.752C59.6287 140.902 58.8464 141 57.9662 141.059C57.5881 141.085 56.8383 141.098 56.0494 141.105C55.254 141.105 53.9566 141.085 53.572 141.059C52.6918 141 51.9094 140.902 51.2184 140.752C50.5273 140.609 49.8492 140.407 49.1842 140.153C48.617 139.924 48.0824 139.605 47.5869 139.201C47.0914 138.79 46.6872 138.308 46.3808 137.76C46.0744 137.212 45.8722 136.502 45.8592 135.85C45.8592 135.491 45.8592 123.325 45.8592 122.595V119.694C45.8592 119.433 45.6506 119.225 45.3898 119.225H40.3566C40.0958 119.225 39.8872 119.433 39.8872 119.694V136.658C39.9133 139.579 41.6149 143.002 44.1967 144.254H44.2097Z" fill="#B38422"/>
<path fill-rule="evenodd" clip-rule="evenodd" d="M125.96 145.896C124.956 145.831 123.932 145.72 122.889 145.544C121.846 145.375 120.868 145.12 119.949 144.801C119.036 144.481 118.26 144.058 117.634 143.536C117.132 143.145 116.643 142.604 116.18 141.919C115.717 141.235 115.333 140.381 115.033 139.357C114.733 138.333 114.576 137.121 114.57 135.706C114.55 133.144 114.537 130.575 114.537 127.993C114.537 125.418 114.537 122.784 114.537 120.098C114.537 117.549 114.557 112.816 114.57 109.869C114.57 109.614 114.779 109.406 115.039 109.406H120.392C120.653 109.406 120.861 109.614 120.861 109.875V117.992H133.073C133.333 117.992 133.542 118.201 133.542 118.462V122.725C133.542 122.986 133.333 123.195 133.073 123.195H120.861V132.257C120.861 133.528 120.894 134.559 120.94 135.341C120.992 136.13 121.07 136.743 121.168 137.199C121.272 137.649 121.396 138.007 121.553 138.268C121.702 138.536 121.885 138.783 122.094 139.005C122.517 139.435 123.091 139.781 123.808 140.022C124.525 140.27 125.275 140.439 126.071 140.537C126.859 140.635 127.577 140.687 128.229 140.681H134.611C134.872 140.681 135.081 140.889 135.081 141.15V145.538C135.081 145.798 134.872 146.007 134.618 146.007C133.04 146.007 128.907 146.007 128.691 146.007C127.89 146.007 126.983 145.981 125.973 145.916L125.96 145.896Z" fill="#B38422"/>
<path fill-rule="evenodd" clip-rule="evenodd" d="M171.858 123.378C170.137 120.437 166.962 119.231 163.604 118.631C161.264 118.181 158.643 117.947 156.25 117.934C153.851 117.947 151.236 118.181 148.896 118.631C145.538 119.231 142.357 120.437 140.642 123.378C139.116 125.998 138.888 128.841 138.856 132.264C138.79 137.623 139.918 143.236 145.519 144.782C148.837 145.694 152.769 145.831 156.263 145.864C159.758 145.831 163.689 145.694 167.007 144.782C172.608 143.236 173.736 137.629 173.671 132.264C173.638 128.841 173.41 125.998 171.884 123.378H171.858ZM165.149 139.331C162.672 140.857 159.132 140.824 156.244 140.857C153.355 140.824 149.815 140.857 147.338 139.331C145.206 137.773 145.401 134.643 145.356 132.257C145.401 129.93 145.258 126.657 147.338 125.118C149.672 123.769 152.945 123.071 156.244 123.038C159.542 123.071 162.815 123.769 165.149 125.118C167.229 126.657 167.086 129.93 167.131 132.257C167.092 134.637 167.288 137.773 165.149 139.331Z" fill="#B38422"/>
<path d="M33.0219 123.378C31.3007 120.437 28.1257 119.231 24.768 118.631C22.4275 118.181 19.8066 117.947 17.4139 117.934C15.0147 117.947 12.4003 118.181 10.0597 118.631C6.7021 119.231 3.52051 120.437 1.80584 123.378C0.280245 125.998 0.0455377 128.841 0.0129395 132.264C0.0129395 132.616 0.0129395 157.795 0.0129395 161.537C0.0129395 161.798 0.221569 162 0.482355 162H6.06319C6.32398 162 6.53259 161.791 6.53259 161.53V144.729C6.58475 144.742 6.62386 144.762 6.67602 144.775C9.99452 145.688 13.9259 145.825 17.4204 145.857C20.9149 145.825 24.8463 145.688 28.1648 144.775C33.7652 143.23 34.8931 137.623 34.8279 132.257C34.7953 128.834 34.5671 125.992 33.0415 123.371L33.0219 123.378ZM26.3132 139.331C23.8358 140.857 20.2956 140.824 17.4074 140.857C14.5192 140.824 10.979 140.857 8.50154 139.331C6.36961 137.773 6.56519 134.643 6.51956 132.257C6.56519 129.93 6.42177 126.657 8.50154 125.118C10.8356 123.769 14.1084 123.071 17.4074 123.038C20.7063 123.071 23.9792 123.769 26.3132 125.118C28.393 126.657 28.2495 129.93 28.2952 132.257C28.2561 134.637 28.4517 137.773 26.3132 139.331Z" fill="#B38422"/>
<path d="M9.26443 48.604H2.71871C2.48467 48.604 2.29492 48.7937 2.29492 49.0278V100.155C2.29492 100.389 2.48467 100.579 2.71871 100.579H9.26443C9.49847 100.579 9.68822 100.389 9.68822 100.155V49.0278C9.68822 48.7937 9.49847 48.604 9.26443 48.604Z" fill="#B38422"/>
<path fill-rule="evenodd" clip-rule="evenodd" d="M56.1863 55.2604C55.5996 54.126 54.7846 53.1741 53.7675 52.3918C52.7374 51.6094 51.5704 50.99 50.2469 50.5271C48.9104 50.0382 47.5348 49.6796 46.1396 49.4579C44.7443 49.2297 43.3035 49.0863 41.8431 49.0211C40.5913 48.9689 39.3135 48.9494 38.0161 48.9429H37.8009C37.7227 48.9429 37.6445 48.9429 37.5662 48.9429C37.488 48.9429 37.4098 48.9429 37.3315 48.9429H37.1164C35.8124 48.9494 34.5346 48.9755 33.2893 49.0211C31.8289 49.0863 30.3881 49.2297 28.9929 49.4579C27.5912 49.6861 26.222 50.0382 24.8855 50.5271C23.5685 50.99 22.395 51.6159 21.3649 52.3918C20.3413 53.1741 19.5329 54.126 18.9461 55.2604C18.3593 56.3883 18.0594 57.7183 18.0464 59.2374V100.155C18.0464 100.389 18.2355 100.578 18.4702 100.578H25.1072C25.3419 100.578 25.531 100.389 25.531 100.155V80.8957C25.531 80.0416 25.531 79.0311 25.5375 77.8445C25.5375 76.6644 25.5375 75.3996 25.544 74.0435C25.544 72.6939 25.5505 71.3379 25.557 69.9753C25.557 68.6126 25.557 67.3218 25.5635 66.1026C25.5635 64.8769 25.5701 63.8077 25.5701 62.8949V60.8282C25.5831 60.0198 25.7852 59.2635 26.1699 58.5724C26.5611 57.8813 27.0631 57.2815 27.6824 56.7664C28.3018 56.2514 28.9798 55.8537 29.6905 55.5668C30.525 55.2474 31.3791 54.9931 32.2462 54.8106C33.1068 54.628 34.0912 54.4976 35.1996 54.4194C35.7081 54.3803 36.6144 54.3672 37.5532 54.3607C38.4985 54.3607 39.4048 54.3803 39.9068 54.4194C41.0086 54.4976 41.9931 54.6215 42.8602 54.8106C43.7273 54.9931 44.5814 55.2474 45.4159 55.5668C46.1265 55.8537 46.8046 56.2514 47.4239 56.7664C48.0433 57.2815 48.5518 57.8813 48.9365 58.5724C49.3211 59.2635 49.5233 60.0198 49.5363 60.8282V62.8949C49.5363 63.8142 49.5363 64.8834 49.5428 66.1026C49.5428 67.3218 49.5428 68.6126 49.5493 69.9753C49.5493 71.3379 49.5558 72.6939 49.5624 74.0435C49.5624 75.3996 49.5624 76.6644 49.5689 77.8445C49.5689 79.0245 49.5689 80.0416 49.5754 80.8957V100.155C49.5754 100.389 49.7645 100.578 49.9992 100.578H56.6362C56.8774 100.578 57.06 100.389 57.06 100.155V59.2374C57.0469 57.7183 56.747 56.3883 56.1603 55.2604H56.1863Z" fill="#B38422"/>
<path d="M171.864 0H3.07075C1.37564 0 0 1.34957 0 3.0186V29.0972C0 30.7662 1.37564 32.1158 3.07075 32.1158H171.864C173.56 32.1158 174.935 30.7662 174.935 29.0972V3.0186C174.935 1.34957 173.56 0 171.864 0ZM50.775 24.4161H36.1188C32.2657 24.4161 29.1298 21.4366 29.1298 17.7791V7.97354H32.7351V17.9747C32.7351 19.6372 34.2542 20.9933 36.1188 20.9933H50.775V24.4291V24.4161ZM77.5577 24.3704H73.8676V17.7595H59.6939V24.3704H56.0038V15.9992C56.0038 11.4355 59.1397 7.69971 62.9733 7.69971H70.5947C74.4283 7.69971 77.5643 11.4355 77.5643 15.9992V24.3704H77.5577ZM118.905 24.4161H115.222V15.1386C115.222 12.9089 113.409 11.0834 111.186 11.0834H106.779C104.562 11.0834 102.743 12.9089 102.743 15.1386V24.4161H99.053V15.1386C99.053 12.9089 97.2405 11.0834 95.0173 11.0834H90.6101C88.3934 11.0834 86.5744 12.9089 86.5744 15.1386V24.4161H82.8843V14.1476C82.8843 10.601 85.7725 7.69971 89.3062 7.69971H96.3213C98.1077 7.69971 99.7311 8.44294 100.892 9.63604C102.059 8.44294 103.682 7.69971 105.462 7.69971H112.477C116.004 7.69971 118.899 10.601 118.899 14.1476V24.4161H118.905ZM145.805 12.9415C145.805 12.8959 145.799 12.8437 145.799 12.7981C145.714 15.6211 143.08 17.8964 139.853 17.8964H127.818V24.4161H124.128V10.8096C124.128 9.08839 125.51 7.69971 127.224 7.69971H139.846C143.074 7.69971 145.701 9.97507 145.792 12.7981C145.792 12.7524 145.799 12.7003 145.799 12.6546V12.9415H145.805Z" fill="#B38422"/>
<path d="M69.1735 11.1357H64.3881C62.7907 11.1357 61.389 12.1658 60.6262 13.7045C60.4567 14.0435 60.6979 14.4477 61.0761 14.4477H72.4854C72.8636 14.4477 73.1048 14.0435 72.9353 13.7045C72.1725 12.1724 70.7708 11.1357 69.1735 11.1357Z" fill="#B38422"/>
<path d="M140.068 11.1289H130.302C129.095 11.1289 128.254 11.82 128.254 12.4459V13.137C128.254 13.7563 129.095 14.4539 130.302 14.4539H140.068C141.274 14.4539 142.115 13.7628 142.115 13.137V12.4459C142.115 11.8265 141.274 11.1289 140.068 11.1289Z" fill="#B38422"/>
</svg>
