<svg width="15" height="47" viewBox="0 0 15 47" fill="none" xmlns="http://www.w3.org/2000/svg">
<path d="M0.00116634 0H14.6205V4.15881H13.6936L13.6569 29.4696C13.6551 30.8153 13.4569 32.1499 13.0721 33.4064L10.3963 42.1518L9.77421 44.4028C8.96334 47.3362 5.65713 47.3362 4.84626 44.4028L4.2242 42.1518L1.54833 33.4064C1.16361 32.1499 0.965922 30.8153 0.963554 29.4696L0.926859 4.15881H-1.71661e-05V0H0.00116634Z" fill="#9C6701" fill-opacity="0.2"/>
<path d="M1.01501 1.01562V3.14746C1.4997 3.18916 1.88727 3.5712 1.93689 4.05371L1.94177 4.15723L1.97888 29.4678C1.9808 30.5602 2.12116 31.6425 2.39392 32.6719L2.51892 33.1094L5.1947 41.8545L5.20251 41.8818L5.82458 44.1318C6.13073 45.2394 6.81623 45.5878 7.30994 45.5879C7.80366 45.5879 8.48908 45.2396 8.79529 44.1318L9.41736 41.8818L9.42517 41.8545L12.101 33.1094L12.226 32.6709C12.4987 31.6417 12.6405 30.5603 12.642 29.4688V29.4678L12.6781 4.15723C12.6789 3.62702 13.0863 3.19238 13.6049 3.14746V1.01562H1.01501Z" stroke="#9C6701" stroke-opacity="0.7" stroke-width="2.03063" stroke-linecap="round" stroke-linejoin="round"/>
</svg>
